<svg width="512" height="512" xmlns="http://www.w3.org/2000/svg">
  <rect width="512" height="512" fill="#4f46e5" rx="64"/>
  <path fill="white" d="M256 128c-23.564 0-42.667 19.103-42.667 42.667v42.666c0 23.564 19.103 42.667 42.667 42.667s42.667-19.103 42.667-42.667v-42.666c0-23.564-19.103-42.667-42.667-42.667zm-85.333 85.333c-23.564 0-42.667 19.103-42.667 42.667v128c0 23.564 19.103 42.667 42.667 42.667h170.666c23.564 0 42.667-19.103 42.667-42.667V256c0-23.564-19.103-42.667-42.667-42.667H170.667z"/>
</svg>